<svg width="27" height="27" viewBox="0 0 22 22" fill="none" xmlns="http://www.w3.org/2000/svg">
<path d="M2.745 13.17C2.05003 13.2034 1.39458 13.503 0.914538 14.0066C0.434497 14.5102 0.166697 15.1793 0.166664 15.8751V19.1251C0.166664 19.8434 0.452006 20.5323 0.959917 21.0402C1.46783 21.5481 2.1567 21.8334 2.875 21.8334H19.125C19.8433 21.8334 20.5322 21.5481 21.0401 21.0402C21.548 20.5323 21.8333 19.8434 21.8333 19.1251V15.8751C21.8333 15.1568 21.548 14.4679 21.0401 13.96C20.5322 13.4521 19.8433 13.1667 19.125 13.1667H12.6748L11.2492 14.5902C11.1787 14.6605 11.1054 14.7277 11.0292 14.7917H19.125C19.4123 14.7917 19.6879 14.9059 19.891 15.109C20.0942 15.3122 20.2083 15.5878 20.2083 15.8751V19.1251C20.2083 19.4124 20.0942 19.688 19.891 19.8911C19.6879 20.0943 19.4123 20.2084 19.125 20.2084H2.875C2.58768 20.2084 2.31213 20.0943 2.10897 19.8911C1.9058 19.688 1.79166 19.4124 1.79166 19.1251V15.8751C1.79153 15.6839 1.84198 15.4962 1.93787 15.3308C2.03376 15.1655 2.1717 15.0285 2.33766 14.9337C2.31979 14.6611 2.3536 14.3876 2.43733 14.1277L2.74608 13.17H2.745Z" fill="#404251"/>
<path d="M18.202 1.18935C18.5256 1.51322 18.7822 1.89765 18.9572 2.32069C19.1322 2.74374 19.2222 3.19711 19.222 3.65493C19.2218 4.11275 19.1314 4.56604 18.956 4.98893C18.7807 5.41182 18.5237 5.79602 18.1998 6.1196L10.4832 13.8232C10.1986 14.1076 9.84803 14.3171 9.46273 14.4331L4.8109 15.8295C4.62171 15.8863 4.4206 15.8902 4.22932 15.8409C4.03804 15.7917 3.86388 15.691 3.72566 15.5499C3.58745 15.4088 3.49045 15.2326 3.44515 15.0403C3.39985 14.8481 3.40798 14.6471 3.46865 14.4591L4.94415 9.87877C5.06332 9.51044 5.26698 9.1746 5.54215 8.9016L13.2685 1.1861C13.5926 0.862358 13.9774 0.605631 14.4007 0.430582C14.8241 0.255534 15.2778 0.165593 15.7359 0.165894C16.194 0.166196 16.6476 0.256735 17.0707 0.432341C17.4939 0.607948 17.8783 0.865182 18.202 1.18935ZM14.4168 2.3366L6.6894 10.051C6.59797 10.1423 6.52964 10.2541 6.49007 10.3771L5.3309 13.9759L8.99473 12.8764C9.12348 12.8381 9.24073 12.7685 9.33598 12.6738L17.0504 4.97127C17.2234 4.79842 17.3607 4.59318 17.4543 4.36729C17.548 4.14139 17.5963 3.89925 17.5964 3.6547C17.5965 3.41015 17.5484 3.16798 17.4549 2.942C17.3614 2.71603 17.2243 2.51068 17.0515 2.33769C16.8786 2.16469 16.6734 2.02744 16.4475 1.93376C16.2216 1.84008 15.9795 1.79181 15.7349 1.79171C15.4904 1.79161 15.2482 1.83968 15.0222 1.93317C14.7962 2.02667 14.5909 2.16375 14.4179 2.3366H14.4168Z" fill="#404251"/>
</svg>
