<svg width="27" height="27" viewBox="0 0 24 27" fill="none" xmlns="http://www.w3.org/2000/svg">
<path d="M10.0667 1.37646C10.6077 0.920487 11.2925 0.67041 12 0.67041C12.7075 0.67041 13.3923 0.920487 13.9333 1.37646L22.9333 8.96579C23.6093 9.53646 24 10.3751 24 11.2591V24.3298C24 24.9486 23.7542 25.5421 23.3166 25.9797C22.879 26.4173 22.2855 26.6631 21.6667 26.6631H17C16.3812 26.6631 15.7877 26.4173 15.3501 25.9797C14.9125 25.5421 14.6667 24.9486 14.6667 24.3298V16.9965C14.6667 16.9081 14.6315 16.8233 14.569 16.7608C14.5065 16.6982 14.4217 16.6631 14.3333 16.6631H9.66667C9.57826 16.6631 9.49348 16.6982 9.43096 16.7608C9.36845 16.8233 9.33333 16.9081 9.33333 16.9965V24.3298C9.33333 24.9486 9.0875 25.5421 8.64992 25.9797C8.21233 26.4173 7.61884 26.6631 7 26.6631H2.33333C2.02692 26.6631 1.7235 26.6028 1.44041 26.4855C1.15731 26.3682 0.900088 26.1964 0.683418 25.9797C0.466748 25.763 0.294876 25.5058 0.177615 25.2227C0.0603536 24.9396 0 24.6362 0 24.3298V11.2591C0 10.3751 0.390667 9.53646 1.06667 8.96579L10.0667 1.37646ZM12.644 2.90579C12.4637 2.75403 12.2356 2.67082 12 2.67082C11.7644 2.67082 11.5363 2.75403 11.356 2.90579L2.356 10.4938C2.24463 10.5875 2.15506 10.7045 2.09357 10.8365C2.03208 10.9684 2.00015 11.1122 2 11.2578V24.3285C2 24.5125 2.14933 24.6618 2.33333 24.6618H7C7.08841 24.6618 7.17319 24.6267 7.2357 24.5642C7.29821 24.5016 7.33333 24.4169 7.33333 24.3285V16.9951C7.33333 15.7058 8.37867 14.6618 9.66667 14.6618H14.3333C15.6213 14.6618 16.6667 15.7058 16.6667 16.9951V24.3285C16.6667 24.5125 16.816 24.6618 17 24.6618H21.6667C21.7551 24.6618 21.8399 24.6267 21.9024 24.5642C21.9649 24.5016 22 24.4169 22 24.3285V11.2591C21.9999 11.1135 21.9679 10.9697 21.9064 10.8378C21.8449 10.7058 21.7554 10.5889 21.644 10.4951L12.644 2.90579Z" fill="#404251"/>
</svg>
