<svg width="27" height="27" viewBox="0 0 22 22" fill="none" xmlns="http://www.w3.org/2000/svg">
<path d="M6.1445 3.41669H4.50975C4.57797 2.53248 4.97734 1.70659 5.62807 1.10407C6.27879 0.501551 7.13292 0.166788 8.01975 0.166687H16.6875C17.3633 0.166687 18.0324 0.299788 18.6567 0.55839C19.281 0.816993 19.8483 1.19603 20.3262 1.67387C20.804 2.1517 21.183 2.71897 21.4416 3.3433C21.7002 3.96762 21.8333 4.63676 21.8333 5.31252V13.9792C21.8332 14.866 21.4985 15.7201 20.8959 16.3709C20.2934 17.0216 19.4675 17.421 18.5833 17.4892V15.8555C19.0345 15.7904 19.4472 15.5649 19.7456 15.2203C20.044 14.8757 20.2083 14.4351 20.2083 13.9792V5.31252C20.2083 4.37874 19.8374 3.4832 19.1771 2.82292C18.5168 2.16263 17.6213 1.79169 16.6875 1.79169H8.02083C7.56496 1.7917 7.12435 1.95598 6.77975 2.25442C6.43515 2.55287 6.20962 2.96549 6.1445 3.41669ZM3.6875 4.50002C2.75371 4.50002 1.85818 4.87096 1.19789 5.53125C0.537608 6.19153 0.166664 7.08707 0.166664 8.02085V18.3125C0.166664 18.7749 0.257733 19.2327 0.434672 19.6599C0.61161 20.0871 0.870953 20.4752 1.19789 20.8021C1.52483 21.1291 1.91297 21.3884 2.34013 21.5653C2.7673 21.7423 3.22514 21.8334 3.6875 21.8334H13.9792C14.4415 21.8334 14.8994 21.7423 15.3265 21.5653C15.7537 21.3884 16.1418 21.1291 16.4688 20.8021C16.7957 20.4752 17.0551 20.0871 17.232 19.6599C17.4089 19.2327 17.5 18.7749 17.5 18.3125V8.02085C17.5 7.08707 17.1291 6.19153 16.4688 5.53125C15.8085 4.87096 14.9129 4.50002 13.9792 4.50002H3.6875ZM1.79166 8.02085C1.79166 6.97435 2.641 6.12502 3.6875 6.12502H13.9792C15.0267 6.12502 15.875 6.97435 15.875 8.02085V18.3125C15.875 18.8153 15.6753 19.2975 15.3197 19.6531C14.9642 20.0086 14.482 20.2084 13.9792 20.2084H3.6875C3.18469 20.2084 2.70248 20.0086 2.34694 19.6531C1.9914 19.2975 1.79166 18.8153 1.79166 18.3125V8.02085Z" fill="#404251"/>
</svg>
